<?xml version="1.0" standalone="no"?>
<!DOCTYPE svg PUBLIC "-//W3C//DTD SVG 20010904//EN"
 "http://www.w3.org/TR/2001/REC-SVG-20010904/DTD/svg10.dtd">
<svg version="1.0" xmlns="http://www.w3.org/2000/svg"
 width="700.000000pt" height="700.000000pt" viewBox="0 0 700.000000 700.000000"
 preserveAspectRatio="xMidYMid meet">
<metadata>
Created by potrace 1.14, written by Peter Selinger 2001-2017
</metadata>
<g transform="translate(0.000000,700.000000) scale(0.100000,-0.100000)"
fill="#000000" stroke="none">
<path d="M4389 6266 c-2 -2 -29 -7 -59 -11 -30 -3 -62 -8 -70 -10 -8 -2 -40
-6 -70 -9 -30 -3 -66 -8 -79 -11 -13 -2 -49 -7 -80 -11 -31 -3 -58 -8 -61 -9
-3 -2 -34 -6 -70 -10 -36 -4 -74 -9 -85 -11 -11 -2 -119 -18 -240 -35 -121
-17 -229 -32 -240 -33 -11 -2 -45 -6 -75 -10 -30 -4 -95 -13 -145 -21 -49 -7
-112 -16 -140 -20 -55 -7 -107 -14 -145 -20 -14 -3 -50 -7 -80 -10 -30 -4 -62
-8 -70 -10 -8 -2 -37 -7 -65 -10 -77 -10 -111 -23 -126 -51 -11 -22 -14 -434
-14 -2630 0 -2390 2 -2605 17 -2620 9 -9 29 -16 44 -16 16 0 214 72 439 161
226 89 498 196 605 238 107 41 214 84 237 94 23 11 47 19 53 19 5 0 18 4 28
10 21 12 315 126 441 171 111 40 153 74 171 139 15 52 17 431 6 720 -4 102 -7
202 -7 223 1 24 -3 37 -11 37 -7 0 -251 -79 -543 -176 -578 -191 -559 -185
-562 -185 -1 0 -25 -9 -53 -19 l-50 -18 0 439 0 439 28 30 c20 23 47 36 112
54 462 129 899 260 927 277 63 39 63 42 63 524 -1 413 -2 437 -20 455 -25 25
22 34 -720 -141 -268 -63 -344 -81 -368 -86 l-23 -5 3 425 c3 402 4 426 22
446 18 20 54 34 121 45 17 3 41 8 55 11 35 7 70 14 105 20 17 3 64 12 105 20
41 9 86 17 100 20 14 3 72 14 130 25 130 25 125 24 290 56 74 14 146 28 160
30 14 3 44 12 67 21 74 27 73 18 73 545 0 531 4 508 -79 508 -26 0 -50 -2 -52
-4z"/>
</g>
</svg>
