<svg version="1.0" xmlns="http://www.w3.org/2000/svg"
    width="797.000000pt" height="483.000000pt" viewBox="0 0 797.000000 483.000000"
    preserveAspectRatio="xMidYMid meet">

    <g transform="translate(0.000000,483.000000) scale(0.100000,-0.100000)"
        fill="#eceee6" stroke="none">
        <path
            d="M7328 4351 c-26 -4 -50 -10 -53 -13 -8 -7 -148 -1269 -142 -1274 2
-3 29 5 60 17 l55 21 7 77 c12 149 14 152 70 172 28 10 55 18 61 18 8 1 14
-29 19 -81 10 -125 7 -121 63 -99 31 12 48 25 50 38 4 24 -117 1113 -124 1125
-3 4 -8 7 -12 7 -4 -1 -28 -5 -54 -8z m41 -707 c1 -40 0 -42 -39 -52 l-41 -10
6 41 c5 43 34 365 36 408 2 32 38 -334 38 -387z" />
        <path
            d="M7042 4310 c-23 -4 -47 -11 -54 -18 -8 -8 -9 -124 -6 -409 2 -220 0
-373 -4 -343 -10 70 -127 699 -134 723 -5 16 -13 17 -62 11 -32 -4 -67 -10
-79 -15 l-23 -9 0 -675 c0 -556 2 -677 13 -681 8 -3 36 4 63 14 l49 20 5 418
5 419 18 -117 c25 -166 117 -641 126 -651 7 -7 104 27 129 46 9 7 12 147 12
638 0 345 -3 629 -7 632 -5 2 -27 0 -51 -3z" />
        <path
            d="M6526 4239 c-26 -4 -54 -10 -62 -13 -21 -8 -21 -1426 0 -1426 8 0 39
10 70 21 l56 22 0 698 c0 384 -3 700 -7 702 -5 2 -30 0 -57 -4z" />
        <path
            d="M6250 4201 l-45 -6 -6 -540 c-5 -550 -7 -573 -45 -647 -18 -34 -68
-62 -99 -54 -13 3 -30 22 -41 43 -18 36 -19 74 -21 578 -2 297 -5 551 -8 563
-6 23 -8 24 -68 17 -34 -4 -72 -11 -84 -16 l-23 -9 0 -558 c0 -572 5 -676 40
-793 35 -119 88 -173 167 -172 122 3 228 101 282 260 46 137 51 213 51 796 l0
547 -27 -2 c-16 0 -48 -4 -73 -7z" />
        <path
            d="M5304 4092 c-140 -49 -231 -193 -280 -444 -21 -109 -32 -742 -15
-910 20 -207 70 -337 149 -393 39 -27 51 -30 117 -29 l72 0 6 -86 c19 -260
120 -348 247 -215 l35 36 3 122 c3 144 -2 159 -47 126 -29 -21 -33 -22 -47 -7
-9 9 -19 42 -23 75 -6 56 -5 60 31 108 48 63 93 171 121 288 21 87 22 114 22
537 0 490 -4 530 -64 655 -66 137 -184 186 -327 137z m149 -392 c49 -58 52
-81 52 -435 0 -390 -7 -436 -80 -511 -36 -38 -47 -44 -82 -44 -33 0 -46 6 -66
30 -44 52 -52 118 -52 445 0 313 7 379 46 456 45 89 133 118 182 59z" />
        <path
            d="M496 4024 c-3 -9 -6 -397 -6 -863 0 -662 3 -851 13 -863 13 -18 235
-90 249 -82 4 3 8 263 9 577 l1 572 58 -230 c79 -314 288 -1016 308 -1036 21
-19 349 -122 368 -115 12 5 14 153 14 963 0 527 -4 964 -9 971 -9 15 -287 50
-299 38 -8 -9 -8 -972 1 -1131 l6 -110 -16 60 c-70 280 -348 1203 -366 1221
-7 6 -79 19 -162 28 -180 19 -162 19 -169 0z" />
        <path
            d="M4470 3987 c-162 -37 -275 -159 -325 -352 -29 -110 -39 -256 -26
-379 13 -130 29 -191 71 -263 40 -70 89 -107 268 -203 83 -45 161 -93 172
-107 27 -34 28 -134 1 -183 -31 -60 -129 -110 -185 -96 -38 9 -66 61 -66 121
0 79 0 79 -139 37 -105 -32 -126 -42 -134 -62 -16 -44 -2 -287 22 -361 62
-196 217 -233 456 -111 138 71 237 201 280 367 50 193 41 469 -21 600 -34 73
-82 114 -239 205 -77 45 -152 94 -168 108 -53 50 -60 149 -16 220 31 52 112
77 161 51 28 -15 58 -86 58 -141 0 -46 1 -48 28 -48 34 1 191 36 200 45 4 4 7
66 7 138 -1 154 -23 247 -78 319 -64 86 -198 125 -327 95z" />
        <path
            d="M3513 3821 c-244 -34 -407 -61 -415 -69 -10 -10 -14 -222 -18 -1039
l-5 -1026 -254 1049 c-182 753 -258 1053 -271 1065 -22 19 -455 69 -469 54
-11 -12 -461 -1858 -461 -1891 0 -13 8 -27 18 -32 43 -21 331 -104 344 -99 10
3 26 59 48 166 18 89 38 161 44 161 13 0 489 -131 495 -136 2 -2 21 -88 42
-191 20 -104 40 -196 44 -205 5 -12 57 -33 169 -68 88 -28 186 -59 217 -70
l57 -18 426 168 c235 92 430 171 434 175 11 10 14 418 3 434 -7 11 -57 -3
-265 -72 l-256 -85 0 197 0 198 238 69 237 69 3 213 2 212 -22 0 c-13 -1 -121
-25 -240 -54 l-218 -53 0 192 0 191 249 48 c136 27 254 52 262 57 11 6 15 50
17 205 4 225 1 244 -31 243 -12 0 -203 -26 -424 -58z m-1179 -568 c10 -60 47
-256 82 -437 35 -181 63 -331 61 -333 -6 -5 -311 68 -320 77 -5 4 16 127 46
271 30 145 66 324 79 396 12 73 25 133 28 133 3 0 14 -48 24 -107z" />
        <path
            d="M6613 2662 l-893 -397 0 -233 c0 -184 3 -233 13 -229 6 3 410 210
897 459 l885 454 3 172 c1 95 -1 172 -5 171 -5 0 -410 -179 -900 -397z" />
        <path
            d="M5267 2048 c-12 -10 -26 -75 -56 -263 -21 -137 -38 -251 -36 -253 1
-1 9 0 18 4 9 3 19 22 22 42 13 77 15 82 57 103 46 23 58 17 58 -33 0 -31 10
-40 30 -28 13 8 12 23 -3 112 -36 211 -59 328 -66 328 -4 0 -15 -6 -24 -12z
m28 -187 c9 -51 15 -94 13 -96 -14 -12 -68 -34 -68 -28 0 18 33 223 36 221 1
-2 10 -45 19 -97z" />
        <path
            d="M5117 1983 c-10 -9 -9 -483 1 -483 28 0 32 30 32 257 0 187 -3 233
-13 233 -8 0 -17 -3 -20 -7z" />
        <path
            d="M450 1692 l0 -239 1303 -489 1302 -490 3 305 c1 167 0 306 -3 309 -4
4 -2593 842 -2602 842 -2 0 -3 -107 -3 -238z" />
        <path
            d="M4923 1900 l-43 -19 0 -251 c0 -248 0 -251 20 -240 18 10 20 21 20
115 0 96 2 104 21 110 11 4 22 5 23 3 1 -1 15 -38 30 -80 17 -48 34 -78 42
-78 27 0 26 30 -1 109 -28 80 -28 80 -9 118 11 22 20 68 22 111 7 118 -27 145
-125 102z m75 -52 c15 -15 16 -89 1 -121 -9 -21 -56 -57 -73 -57 -3 0 -6 36
-6 80 0 76 1 80 28 94 33 19 35 19 50 4z" />
        <path
            d="M4721 1811 c-12 -8 -101 -479 -101 -539 0 -38 37 -9 44 35 16 92 15
90 68 113 27 12 52 19 55 17 2 -3 7 -24 10 -46 6 -41 16 -49 41 -32 11 7 6 47
-28 217 -23 115 -43 217 -46 227 -6 19 -21 22 -43 8z m48 -282 c1 -20 -7 -29
-35 -43 -20 -9 -38 -15 -40 -14 -2 2 6 58 16 123 11 66 20 125 21 130 1 17 38
-168 38 -196z" />
        <path
            d="M4485 1716 c-45 -19 -82 -69 -101 -132 -23 -80 -17 -358 9 -397 34
-53 120 -21 165 61 24 43 43 162 26 162 -21 -1 -32 -18 -38 -62 -12 -78 -76
-136 -111 -101 -12 11 -15 45 -15 163 0 82 4 160 9 173 14 35 51 67 78 67 19
0 25 -8 35 -45 17 -62 42 -58 46 7 3 46 -18 108 -37 108 -5 0 -15 2 -23 5 -7
2 -27 -2 -43 -9z" />
        <path
            d="M4205 1596 c-69 -30 -116 -137 -100 -225 9 -50 30 -69 94 -88 31 -8
59 -21 63 -27 4 -6 8 -30 8 -54 0 -55 -43 -105 -87 -100 -23 2 -29 8 -31 36
-3 34 -21 42 -42 17 -15 -19 -8 -98 11 -121 18 -21 78 -13 119 16 51 36 74 93
75 181 0 92 -13 112 -86 129 -61 15 -84 44 -75 95 8 39 49 77 80 73 14 -2 24
-14 31 -35 5 -18 12 -33 16 -33 18 0 40 34 35 54 -3 12 -6 29 -6 39 0 22 -35
57 -57 57 -10 -1 -32 -7 -48 -14z" />
        <path d="M4003 1503 c-19 -7 -19 -563 0 -563 34 0 37 21 37 297 0 280 0 281
-37 266z" />
        <path
            d="M3808 1417 l-118 -52 0 -37 c0 -42 10 -46 50 -23 50 29 49 32 52
-230 l3 -245 23 15 c22 16 22 18 22 261 l0 245 45 19 c43 18 45 21 45 60 0 22
-1 40 -2 39 -2 0 -56 -24 -120 -52z" />
        <path
            d="M3523 1292 l-103 -45 0 -298 c0 -165 3 -299 8 -299 4 1 52 24 107 53
78 41 101 57 103 75 7 50 -4 55 -58 27 -28 -14 -62 -30 -76 -35 l-24 -10 0 90
0 90 70 31 c69 31 70 32 70 70 0 22 -2 39 -4 39 -2 0 -33 -14 -68 -30 l-63
-30 -3 77 c-2 42 -1 81 1 88 3 6 36 24 73 40 38 16 72 34 76 39 10 14 10 64 1
69 -5 2 -54 -16 -110 -41z" />
        <path
            d="M3230 1163 c-8 -3 -41 -17 -72 -31 l-58 -25 0 -308 c0 -170 2 -309 5
-309 2 0 16 5 30 12 25 11 25 13 25 124 l0 114 40 20 c120 61 178 188 150 325
-15 73 -57 100 -120 78z m40 -83 c41 -22 33 -149 -12 -197 -12 -14 -40 -34
-60 -44 l-38 -19 0 118 0 118 43 16 c23 9 43 17 45 17 2 1 12 -3 22 -9z" />
    </g>
</svg>